
<svg width="44px" height="40px" viewBox="0 0 44 40" version="1.1" xmlns="http://www.w3.org/2000/svg" xmlns:xlink="http://www.w3.org/1999/xlink">
    <g id="Page-1" stroke="none" stroke-width="1" fill="none" fill-rule="evenodd">
        <g id="In-game-Screen-(Single-Player)" transform="translate(-684.000000, -293.000000)" fill="#808080" fill-rule="nonzero">
            <g id="Group-4" transform="translate(490.000000, 166.000000)">
                <g id="Group" transform="translate(6.000000, 127.000000)">
                    <g id="like" transform="translate(188.000000, 0.000000)">
                        <path d="M43.3181236,11.9276037 C42.6863812,5.01561692 37.7647835,0.000827386493 31.6055035,0.000827386493 C27.5020912,0.000827386493 23.7449304,2.19588375 21.6307991,5.71393112 C19.5358115,2.1503775 15.9326327,0 11.8949749,0 C5.73652721,0 0.814097172,5.01478953 0.183187133,11.9267763 C0.133247025,12.2320819 -0.0715074204,13.8388665 0.551079267,16.4591995 C1.44833655,20.238701 3.52085106,23.6764919 6.54305996,26.3985934 L21.6208111,40 L36.9574184,26.3994208 C39.9796273,23.6764919 42.0521418,20.2395284 42.9493991,16.4591995 C43.5719858,13.8396939 43.3672314,12.2329093 43.3181236,11.9276037 Z M41.3288426,16.0802565 C40.5098248,19.5321129 38.6112684,22.677009 35.843754,25.1690971 L21.6307991,37.7743303 L7.6617184,25.1724067 C4.88921003,22.6753542 2.99148591,19.5312856 2.17163579,16.0794291 C1.58234251,13.5997518 1.82455204,12.1989865 1.82538437,12.1898852 L1.8378694,12.1063192 C2.37888724,6.05067742 6.6079821,1.65477299 11.8949749,1.65477299 C15.7961298,1.65477299 19.2303446,4.03764609 20.8600568,7.87258248 L21.6266374,9.67876719 L22.3932181,7.87258248 C23.9971279,4.09639053 27.6127918,1.65560037 31.6063358,1.65560037 C36.8924963,1.65560037 41.1224235,6.05150481 41.6742617,12.1857483 C41.6759264,12.1989865 41.9181359,13.6005792 41.3288426,16.0802565 Z" id="Shape"></path>
                    </g>
                </g>
            </g>
        </g>
    </g>
</svg>